<?xml version="1.0" standalone="no"?>
<!DOCTYPE svg PUBLIC "-//W3C//DTD SVG 20010904//EN"
 "http://www.w3.org/TR/2001/REC-SVG-20010904/DTD/svg10.dtd">
<svg version="1.0" xmlns="http://www.w3.org/2000/svg"
 width="396.000000pt" height="396.000000pt" viewBox="0 0 396.000000 396.000000"
 preserveAspectRatio="xMidYMid meet">
<metadata>
Created by potrace 1.14, written by Peter Selinger 2001-2017
</metadata>
<g transform="translate(0.000000,396.000000) scale(0.100000,-0.100000)"
fill="#000000" stroke="none">
<path d="M2040 3951 c0 -5 -9 -7 -20 -4 -11 3 -27 0 -35 -7 -9 -7 -15 -8 -15
-2 0 12 -32 11 -42 -2 -3 -5 -19 -10 -34 -12 -16 -2 -30 -8 -32 -14 -2 -5 -7
-8 -12 -5 -4 3 -20 -2 -36 -10 -15 -7 -31 -12 -35 -10 -4 3 -10 -2 -13 -11 -4
-9 -9 -14 -13 -11 -3 4 -12 2 -20 -5 -11 -9 -15 -7 -20 10 -3 12 -9 19 -14 16
-5 -3 -9 0 -9 6 0 6 -7 18 -15 26 -8 9 -15 13 -15 9 0 -4 -7 0 -15 9 -16 15
-49 11 -39 -5 3 -5 1 -9 -3 -9 -5 0 -9 -9 -10 -20 -2 -24 -46 -70 -67 -70 -8
0 -19 -7 -24 -15 -4 -9 -18 -17 -29 -19 -12 -3 -30 -9 -41 -15 -11 -6 -22 -7
-26 -4 -3 3 -6 1 -6 -6 0 -8 -6 -11 -16 -7 -8 3 -12 2 -9 -4 3 -6 0 -10 -8
-10 -8 0 -24 -9 -37 -20 -12 -11 -27 -17 -31 -14 -5 3 -9 1 -9 -5 0 -5 -12
-16 -27 -24 -16 -7 -27 -18 -26 -25 2 -6 -3 -9 -10 -6 -7 2 -12 18 -11 34 1
17 -2 33 -7 36 -5 3 -9 0 -9 -7 0 -7 -3 -9 -7 -6 -3 4 -12 2 -20 -4 -7 -6 -13
-8 -13 -5 0 4 -13 -2 -29 -13 -15 -11 -30 -18 -33 -16 -2 2 -18 -8 -35 -24
-18 -16 -34 -27 -37 -24 -2 2 -7 -4 -10 -15 -4 -11 -14 -23 -22 -26 -8 -3 -12
-10 -9 -16 3 -5 -1 -10 -10 -10 -9 0 -13 -5 -10 -10 4 -6 1 -17 -5 -25 -7 -8
-9 -15 -6 -15 4 0 0 -7 -8 -16 -9 -8 -14 -19 -11 -24 6 -9 -23 -35 -31 -27 -3
2 -16 -5 -29 -17 -42 -38 -59 -51 -67 -49 -4 2 -5 -4 -2 -12 4 -8 1 -15 -5
-15 -6 0 -11 -7 -11 -15 0 -8 -4 -15 -10 -15 -5 0 -7 -7 -4 -15 4 -8 1 -15 -6
-15 -6 0 -9 -4 -5 -9 3 -5 1 -12 -4 -16 -5 -3 -8 -14 -6 -25 2 -11 -1 -20 -6
-20 -6 0 -7 -5 -4 -10 4 -6 1 -17 -5 -25 -7 -8 -8 -15 -3 -15 11 0 11 -29 -1
-48 -4 -6 -3 -12 1 -12 5 0 9 -14 9 -31 l2 -31 -23 24 c-12 13 -28 34 -34 47
-14 26 -20 24 -26 -10 -3 -13 -9 -25 -14 -27 -5 -2 -7 -11 -4 -21 3 -11 -1
-29 -7 -41 -10 -18 -10 -21 2 -14 10 6 11 5 2 -7 -10 -11 -13 -64 -4 -64 1 0
4 -13 6 -29 2 -16 7 -32 11 -35 14 -10 33 -55 30 -71 -1 -8 -7 -22 -12 -30
-10 -15 -11 -20 -14 -41 0 -5 -5 -8 -10 -5 -4 3 -6 -5 -4 -18 3 -13 0 -34 -7
-46 -10 -18 -10 -21 2 -14 10 6 11 5 1 -7 -10 -12 -10 -18 0 -29 10 -10 9 -11
-3 -5 -12 7 -13 6 -4 -6 6 -8 12 -32 13 -54 1 -22 5 -42 9 -45 4 -3 8 -20 9
-39 1 -19 6 -37 11 -40 5 -3 9 -35 9 -71 1 -95 2 -112 11 -106 4 2 7 -11 6
-30 -1 -19 2 -34 8 -34 5 0 6 -4 3 -10 -3 -5 -2 -10 3 -10 5 0 9 -6 10 -12 2
-24 8 -43 21 -67 11 -19 11 -25 0 -32 -7 -4 -17 -5 -21 -3 -4 3 -8 0 -8 -5 0
-6 -5 -11 -10 -11 -26 0 -75 -69 -85 -121 -9 -44 -14 -191 -7 -204 3 -5 7 -23
9 -40 6 -48 7 -52 37 -140 10 -27 18 -55 18 -62 1 -7 8 -15 15 -17 8 -3 11
-11 8 -16 -4 -6 2 -19 14 -29 11 -10 18 -21 14 -25 -3 -3 -1 -6 5 -6 7 0 12
-4 12 -9 0 -6 14 -25 30 -43 17 -18 30 -36 30 -40 0 -25 84 -83 123 -86 37 -2
56 -22 56 -58 0 -36 4 -55 15 -72 4 -7 6 -16 3 -18 -2 -3 -1 -22 4 -42 5 -20
12 -52 15 -71 2 -19 10 -41 16 -48 6 -7 7 -13 3 -13 -4 0 -2 -7 5 -15 6 -8 9
-19 5 -25 -3 -5 -3 -10 2 -10 13 0 36 -59 29 -75 -3 -8 -16 -15 -30 -15 -14 0
-28 -5 -31 -10 -4 -6 -11 -8 -16 -5 -5 4 -9 3 -9 -2 0 -4 -20 -8 -45 -8 -26 0
-45 5 -45 11 0 6 -12 10 -27 8 -16 -1 -28 -3 -28 -4 0 -1 -8 -3 -18 -5 -9 -2
-15 1 -12 5 3 5 -8 5 -24 0 -16 -4 -32 -6 -35 -2 -3 3 -6 0 -6 -7 0 -7 -5 -9
-10 -6 -13 8 -80 -16 -80 -28 0 -5 -7 -7 -15 -3 -8 3 -15 2 -15 -2 0 -4 -16
-18 -35 -31 -19 -13 -32 -27 -29 -32 3 -5 -3 -9 -12 -9 -10 0 -15 -3 -11 -6 3
-3 -6 -17 -21 -31 -15 -14 -26 -26 -24 -26 2 -1 -2 -15 -8 -31 -6 -16 -12 -36
-13 -45 -1 -9 -5 -21 -9 -26 -3 -6 -6 -42 -6 -82 0 -39 -3 -76 -6 -82 -4 -6
-4 -11 1 -11 4 0 8 -22 8 -50 0 -27 -4 -50 -8 -50 -5 0 -5 -6 0 -13 12 -20 9
-101 -5 -115 -6 -7 -12 -18 -12 -23 0 -5 426 -9 1090 -9 l1090 0 -12 25 c-6
14 -15 25 -20 25 -5 0 -6 5 -3 10 3 6 -2 10 -12 10 -14 0 -15 2 -4 9 11 7 9
10 -7 16 -12 3 -21 9 -21 13 1 4 0 9 -1 12 -1 3 -3 13 -5 23 -2 10 -7 26 -11
35 -4 9 -8 19 -8 22 -2 14 -44 59 -50 53 -3 -3 -6 1 -6 10 0 9 -3 16 -7 16
-18 -3 -33 1 -31 9 1 4 -4 18 -11 31 -12 22 -11 26 5 38 80 56 204 180 282
280 34 45 62 85 62 90 0 4 9 14 21 21 12 7 18 16 15 19 -3 3 0 15 7 27 6 11
12 28 12 36 1 8 6 14 11 13 6 -1 10 8 9 20 -1 12 2 24 6 27 4 3 9 17 11 30 2
14 7 31 11 38 5 6 6 12 3 12 -2 0 -1 14 4 30 6 20 5 30 -2 30 -7 0 -7 4 1 13
6 8 8 17 4 20 -3 4 -2 7 3 7 6 0 11 19 13 43 1 23 3 52 4 64 2 22 48 49 61 36
3 -4 6 -1 6 5 0 7 8 12 19 12 25 0 111 86 111 112 0 7 9 19 21 26 12 7 18 16
15 19 -3 3 2 13 12 22 19 17 52 81 52 100 0 6 4 11 8 11 4 0 9 12 10 27 1 15
5 29 10 32 4 3 8 20 10 36 4 42 7 59 14 70 3 6 4 26 3 45 -1 19 3 39 9 43 8 6
7 10 -1 14 -7 2 -13 9 -13 14 0 6 3 8 8 6 4 -3 8 6 8 19 1 13 -1 24 -5 24 -3
0 -6 19 -6 43 0 23 -6 52 -14 64 -7 13 -10 23 -6 23 3 0 -1 7 -9 16 -9 8 -14
20 -11 25 4 5 0 9 -7 9 -8 0 -20 9 -28 19 -7 11 -17 18 -22 15 -4 -3 -8 0 -8
6 0 6 -4 9 -8 6 -5 -3 -9 1 -9 9 0 8 4 12 8 10 7 -5 19 41 22 92 2 18 6 35 10
39 12 12 8 26 -5 19 -7 -4 -6 -1 2 7 8 7 16 31 17 53 2 51 7 77 16 93 5 7 3
12 -4 12 -8 0 -8 4 -2 13 6 6 9 20 8 29 -2 10 1 21 6 24 6 3 5 12 -3 22 -8 10
-9 13 -1 9 8 -5 11 9 10 53 -1 33 1 60 5 60 4 0 3 13 -2 29 -6 23 -4 33 9 45
10 9 21 16 24 16 13 0 57 44 57 57 0 7 5 13 10 13 26 0 0 27 -41 42 -44 17
-45 20 -43 56 1 20 3 42 5 47 2 6 -3 21 -10 34 -7 12 -11 32 -8 42 3 10 1 17
-4 13 -5 -3 -10 4 -10 15 -1 12 -2 24 -4 29 -14 52 -20 69 -31 91 -22 41 -95
121 -106 115 -6 -4 -2 5 7 19 9 14 16 30 16 34 -1 4 4 15 11 23 13 15 16 95 5
106 -7 8 -47 -19 -47 -31 0 -6 -8 -11 -17 -12 -10 -1 -35 -6 -55 -11 -40 -10
-49 -3 -53 46 -1 13 -6 27 -11 30 -5 4 -11 16 -12 27 -2 10 -12 27 -23 36 -10
9 -19 21 -19 28 0 6 -4 11 -9 11 -4 0 -21 13 -38 28 -16 16 -44 35 -61 43 -18
8 -32 17 -32 21 0 5 -9 8 -20 8 -11 0 -20 5 -20 11 0 5 -4 8 -9 5 -5 -3 -14 1
-21 9 -7 8 -18 15 -24 15 -6 0 -4 -5 4 -10 10 -7 11 -10 2 -10 -7 0 -15 6 -18
14 -3 9 -12 12 -21 9 -11 -4 -14 -2 -9 5 4 7 1 12 -8 12 -9 0 -16 6 -16 14 0
7 -20 29 -45 48 -24 19 -42 38 -39 41 3 3 -2 4 -13 3 -10 -2 -21 1 -24 5 -3 5
-29 15 -57 21 -29 7 -52 17 -52 23 0 5 -5 3 -10 -5 -6 -10 -10 -11 -10 -2 0 6
-8 12 -18 12 -10 0 -27 7 -39 15 -12 8 -31 16 -43 18 -12 2 -25 9 -30 16 -5 9
-10 10 -14 3 -4 -8 -18 -7 -44 2 -23 9 -45 10 -60 5 -15 -6 -21 -5 -17 1 3 6
1 10 -4 10 -6 0 -11 -4 -11 -9z"/>
</g>
</svg>
